<svg width="375" height="362" viewBox="0 0 375 362" fill="none" xmlns="http://www.w3.org/2000/svg">
<g filter="url(#filter0_d_8025_38971)">
<rect x="179" y="234" width="120" height="120" rx="60" fill="white" shape-rendering="crispEdges"/>
<rect x="179.5" y="234.5" width="119" height="119" rx="59.5" stroke="#DAE0E6" shape-rendering="crispEdges"/>
<path d="M218.717 310.108C217.524 310.111 216.351 309.797 215.318 309.198C214.286 308.599 213.431 307.736 212.841 306.698C212.26 305.668 211.97 304.499 212.002 303.317C212.035 302.134 212.389 300.983 213.025 299.986L225.127 280.982C225.747 279.96 226.626 279.121 227.676 278.551C228.725 277.981 229.908 277.699 231.101 277.736C232.295 277.764 233.459 278.109 234.474 278.735C235.49 279.362 236.322 280.246 236.883 281.299C238.011 283.433 237.87 285.999 236.519 288.002L224.425 307.006C223.812 307.962 222.967 308.747 221.969 309.29C220.971 309.832 219.853 310.114 218.717 310.108Z" fill="#F62B54"/>
<path d="M239.475 310.108C237.035 310.108 234.789 308.803 233.609 306.706C233.029 305.678 232.74 304.513 232.773 303.333C232.805 302.154 233.158 301.006 233.794 300.011L245.873 281.051C246.483 280.015 247.359 279.161 248.411 278.578C249.462 277.996 250.65 277.704 251.852 277.736C254.313 277.789 256.544 279.166 257.672 281.32C258.793 283.474 258.629 286.056 257.236 288.053L245.16 307.014C244.548 307.965 243.707 308.748 242.714 309.289C241.72 309.829 240.607 310.111 239.475 310.108Z" fill="#FFCC00"/>
<path d="M259.769 310.267C263.211 310.267 266 307.536 266 304.168C266 300.799 263.211 298.068 259.769 298.068C256.328 298.068 253.539 300.799 253.539 304.168C253.539 307.536 256.328 310.267 259.769 310.267Z" fill="#00CA72"/>
</g>
<g filter="url(#filter1_d_8025_38971)">
<rect x="127" y="3" width="120" height="120" rx="60" fill="white" shape-rendering="crispEdges"/>
<rect x="127.5" y="3.5" width="119" height="119" rx="59.5" stroke="#DAE0E6" shape-rendering="crispEdges"/>
<path d="M213.604 57.2127C211.07 45.5626 197.108 38.7116 182.414 41.9067C167.72 45.1018 157.866 57.1398 160.396 68.7867C162.927 80.4336 176.892 87.2911 191.583 84.0927C206.274 80.8943 216.135 68.8729 213.604 57.2127ZM187.002 73.7384C184.879 73.7384 182.804 73.1086 181.039 71.9286C179.274 70.7486 177.899 69.0715 177.086 67.1092C176.274 65.147 176.062 62.9878 176.476 60.9047C176.89 58.8216 177.912 56.9081 179.413 55.4063C180.914 53.9045 182.826 52.8817 184.908 52.4673C186.99 52.053 189.148 52.2656 191.109 53.0784C193.07 53.8912 194.746 55.2676 195.925 57.0336C197.105 58.7996 197.734 60.8758 197.734 62.9997C197.734 64.4099 197.456 65.8064 196.917 67.1092C196.378 68.4121 195.587 69.596 194.591 70.5931C193.594 71.5903 192.411 72.3813 191.109 72.921C189.807 73.4607 188.411 73.7384 187.002 73.7384Z" fill="#008C99"/>
<path d="M189.38 47.9655C186.333 47.9662 183.354 48.871 180.82 50.5656C178.286 52.2603 176.312 54.6686 175.146 57.486C173.98 60.3035 173.675 63.4035 174.27 66.3942C174.865 69.385 176.333 72.132 178.488 74.288C180.644 76.444 183.389 77.9122 186.378 78.5068C189.367 79.1015 192.466 78.796 195.281 77.6289C198.097 76.4618 200.503 74.4855 202.196 71.95C203.889 69.4145 204.793 66.4336 204.793 63.3842C204.793 61.3591 204.394 59.3538 203.62 57.4829C202.845 55.6121 201.71 53.9122 200.278 52.4804C198.847 51.0486 197.148 49.9129 195.278 49.1382C193.408 48.3636 191.404 47.9651 189.38 47.9655ZM187.005 72.3795C185.151 72.3795 183.339 71.8294 181.797 70.7987C180.255 69.7681 179.054 68.3031 178.344 66.5892C177.635 64.8753 177.449 62.9893 177.811 61.1698C178.173 59.3503 179.066 57.679 180.377 56.3672C181.688 55.0554 183.358 54.1621 185.176 53.8001C186.995 53.4382 188.88 53.624 190.592 54.3339C192.305 55.0438 193.769 56.2461 194.799 57.7886C195.829 59.3311 196.379 61.1446 196.379 62.9997C196.379 65.4868 195.392 67.8721 193.635 69.6311C191.878 71.39 189.491 72.3786 187.005 72.3795Z" fill="#70CCD3"/>
</g>
<g filter="url(#filter2_d_8025_38971)">
<rect x="256" y="109" width="88" height="88" rx="44" fill="white" shape-rendering="crispEdges"/>
<rect x="256.5" y="109.5" width="87" height="87" rx="43.5" stroke="#DAE0E6" shape-rendering="crispEdges"/>
<path d="M320.954 153C320.954 164.598 311.573 174 300 174C288.427 174 279.046 164.598 279.046 153C279.046 141.402 288.427 132 300 132C311.573 132 320.954 141.402 320.954 153Z" fill="white"/>
<path d="M300 132C288.427 132 279.046 141.402 279.046 153C279.046 161.897 284.566 169.499 292.361 172.559C292.178 170.898 292.013 168.342 292.434 166.529C292.815 164.89 294.891 156.09 294.891 156.09C294.891 156.09 294.264 154.832 294.264 152.972C294.264 150.052 295.953 147.872 298.056 147.872C299.844 147.872 300.707 149.217 300.707 150.83C300.707 152.632 299.562 155.326 298.972 157.823C298.478 159.913 300.018 161.617 302.075 161.617C305.799 161.617 308.662 157.682 308.662 152.001C308.662 146.973 305.057 143.457 299.909 143.457C293.947 143.457 290.447 147.939 290.447 152.571C290.447 154.376 291.141 156.311 292.007 157.363C292.178 157.571 292.203 157.753 292.152 157.965C291.993 158.629 291.64 160.055 291.57 160.347C291.479 160.731 291.266 160.813 290.869 160.628C288.252 159.407 286.616 155.572 286.616 152.492C286.616 145.868 291.419 139.784 300.461 139.784C307.73 139.784 313.379 144.975 313.379 151.913C313.379 159.15 308.826 164.975 302.506 164.975C300.382 164.975 298.386 163.869 297.703 162.564C297.703 162.564 296.652 166.573 296.398 167.556C295.925 169.38 294.647 171.666 293.793 173.061C295.754 173.669 297.84 174 300 174C311.573 174 320.954 164.598 320.954 153C320.954 141.402 311.573 132 300 132Z" fill="#E60023"/>
</g>
<g filter="url(#filter3_d_8025_38971)">
<rect x="62" y="146" width="88" height="88" rx="44" fill="white" shape-rendering="crispEdges"/>
<rect x="62.5" y="146.5" width="87" height="87" rx="43.5" stroke="#DAE0E6" shape-rendering="crispEdges"/>
<path d="M106.028 178.851L95.514 185.574L106.028 192.297L95.514 199.02L85 192.241L95.514 185.518L85 178.851L95.514 172.128L106.028 178.851ZM95.4581 201.149L105.972 194.426L116.486 201.149L105.972 207.872L95.4581 201.149ZM106.028 192.241L116.542 185.518L106.028 178.851L116.486 172.128L127 178.851L116.486 185.574L127 192.297L116.486 199.02L106.028 192.241Z" fill="#0061FF"/>
</g>
<g filter="url(#filter4_d_8025_38971)">
<rect x="355" y="207" width="88" height="88" rx="44" fill="white" shape-rendering="crispEdges"/>
<rect x="355.5" y="207.5" width="87" height="87" rx="43.5" stroke="#DAE0E6" shape-rendering="crispEdges"/>
</g>
<g filter="url(#filter5_d_8025_38971)">
<rect x="339" y="24" width="64" height="64" rx="32" fill="white" shape-rendering="crispEdges"/>
<rect x="339.5" y="24.5" width="63" height="63" rx="31.5" stroke="#DAE0E6" shape-rendering="crispEdges"/>
<path d="M364.904 54.8436C364.815 54.7268 364.697 54.6351 364.562 54.5773C364.427 54.5194 364.279 54.4974 364.133 54.5134C363.987 54.5294 363.848 54.5828 363.729 54.6684C363.61 54.7541 363.514 54.8691 363.453 55.0023L356.093 69.7208C356.026 69.8547 355.994 70.0037 356.001 70.1534C356.007 70.3032 356.052 70.4488 356.131 70.5764C356.209 70.7041 356.319 70.8095 356.45 70.8828C356.581 70.956 356.728 70.9946 356.878 70.9949H367.125C367.291 70.9981 367.455 70.9525 367.595 70.8639C367.735 70.7752 367.846 70.6474 367.914 70.4961C370.123 65.9618 368.785 58.9925 364.904 54.8436Z" fill="url(#paint0_linear_8025_38971)"/>
<path d="M370.304 41.4763C368.47 44.2986 367.4 47.5494 367.202 50.9097C367.003 54.2699 367.681 57.6241 369.17 60.643L374.136 70.4961C374.208 70.6426 374.32 70.7659 374.458 70.8524C374.597 70.9389 374.757 70.9851 374.92 70.9859H385.168C385.311 70.974 385.45 70.9281 385.572 70.8519C385.695 70.7757 385.797 70.6715 385.871 70.5478C385.945 70.4241 385.989 70.2846 385.998 70.1408C386.007 69.997 385.982 69.853 385.925 69.7208L371.8 41.4763C371.733 41.3353 371.627 41.2162 371.494 41.1329C371.362 41.0496 371.209 41.0054 371.052 41.0054C370.896 41.0054 370.743 41.0496 370.61 41.1329C370.478 41.2162 370.372 41.3353 370.304 41.4763Z" fill="#2684FF"/>
</g>
<g filter="url(#filter6_d_8025_38971)">
<rect y="74" width="64" height="64" rx="32" fill="white" shape-rendering="crispEdges"/>
<rect x="0.5" y="74.5" width="63" height="63" rx="31.5" stroke="#DAE0E6" shape-rendering="crispEdges"/>
<path d="M36.5354 103.022C38.3142 104.807 39.769 107.728 38.9364 109.464C36.7102 114.106 20.0975 122.248 18.6867 120.838C17.2759 119.43 25.4366 102.841 30.0881 100.617C31.8271 99.786 34.7538 101.238 36.5425 103.014C36.5425 103.014 36.5397 103.018 36.5354 103.022Z" fill="#FF8200"/>
<path d="M45.3369 101.062C45.0484 99.9945 44.3111 98.9152 43.21 98.7876C41.1912 98.5536 38.0101 102.116 38.2374 102.961C38.4648 103.807 42.96 105.297 44.6379 104.093C45.5031 103.472 45.621 102.13 45.3369 101.062ZM39.0899 91.1929C40.5888 91.5986 42.1047 92.6296 42.2837 94.1698C42.6133 96.9949 37.6095 101.448 36.4217 101.131C35.234 100.813 33.1413 94.5215 34.8334 92.1715C35.7057 90.9604 37.5882 90.7958 39.0899 91.1929Z" fill="#43B02A"/>
</g>
<g filter="url(#filter7_d_8025_38971)">
<rect x="40" y="275" width="64" height="64" rx="32" fill="white" shape-rendering="crispEdges"/>
<rect x="40.5" y="275.5" width="63" height="63" rx="31.5" stroke="#DAE0E6" shape-rendering="crispEdges"/>
<path fill-rule="evenodd" clip-rule="evenodd" d="M79.1559 306.262H79.8191C79.9139 305.977 79.9139 305.598 79.8191 305.125C79.6296 304.461 79.4401 303.988 79.0611 304.082C78.6822 304.177 78.5874 304.651 78.7769 305.409C78.8717 305.693 79.0611 306.072 79.1559 306.262Z" fill="#101828"/>
<path fill-rule="evenodd" clip-rule="evenodd" d="M75.6503 306.83C75.9345 306.925 76.124 307.02 76.2188 306.925C76.2188 306.925 76.2188 306.83 76.2188 306.641C76.0293 306.356 75.745 306.167 75.4608 305.977C74.7976 305.693 74.0396 305.788 73.4711 306.262C73.2816 306.451 73.0922 306.641 73.0922 306.735C73.0922 306.735 73.0922 306.83 73.1869 306.83C73.3764 306.83 73.9449 306.546 74.6081 306.546C74.9871 306.546 75.3661 306.641 75.6503 306.83Z" fill="#101828"/>
<path fill-rule="evenodd" clip-rule="evenodd" d="M75.0818 307.114C74.7028 307.209 74.5133 307.304 74.3239 307.399C74.2291 307.493 74.1344 307.588 74.1344 307.683V307.778H74.2291C74.3239 307.778 74.5133 307.683 74.5133 307.683C75.0818 307.493 75.3661 307.493 75.745 307.588H76.0293V307.493C75.9345 307.304 75.5555 307.114 75.0818 307.114Z" fill="#101828"/>
<path fill-rule="evenodd" clip-rule="evenodd" d="M78.0189 308.441C78.3032 308.536 78.5874 308.536 78.6822 308.346C78.7769 308.157 78.6822 307.872 78.3979 307.778C78.1137 307.683 77.8294 307.683 77.7347 307.872C77.64 307.967 77.7347 308.251 78.0189 308.441Z" fill="#101828"/>
<path fill-rule="evenodd" clip-rule="evenodd" d="M79.7244 306.925C79.5349 306.925 79.3454 307.114 79.3454 307.493C79.3454 307.778 79.5349 308.062 79.7244 308.062C79.9139 308.062 80.1033 307.872 80.1033 307.493C80.1033 307.209 79.9139 306.925 79.7244 306.925Z" fill="#101828"/>
<path fill-rule="evenodd" clip-rule="evenodd" d="M65.323 312.231C65.2283 312.136 65.2283 312.231 65.1335 312.231C65.0388 312.231 65.0388 312.231 64.944 312.231C64.7545 312.231 64.6598 312.136 64.565 312.041C64.4703 311.852 64.4703 311.662 64.565 311.378C64.565 311.378 64.565 311.283 64.6598 311.283C64.8493 310.904 65.1335 310.241 64.7545 309.672C64.4703 309.199 64.0913 308.915 63.6176 308.82C63.1438 308.725 62.6701 308.915 62.3859 309.293C61.9121 309.767 61.8174 310.525 61.9121 310.809C61.9121 310.904 62.0069 310.904 62.0069 310.904C62.1016 310.904 62.1964 310.809 62.2911 310.62C62.2911 310.62 62.2911 310.62 62.2911 310.525C62.2911 310.43 62.3859 310.241 62.4806 310.051C62.5754 309.862 62.7649 309.767 63.0491 309.672C63.2386 309.578 63.5228 309.672 63.7123 309.767C63.9966 309.957 64.186 310.43 63.9966 310.809C63.9018 310.999 63.8071 311.378 63.8071 311.662C63.9018 312.325 64.2808 312.515 64.565 312.61C64.944 312.61 65.1335 312.42 65.2283 312.325C65.4177 312.231 65.4177 312.231 65.323 312.231Z" fill="#101828"/>
<path d="M85.0301 310.999C85.0301 310.999 84.9354 310.62 84.8406 310.241C84.7459 309.862 84.6511 309.578 84.6511 309.578C85.1249 308.915 85.1249 308.251 85.0301 307.872C84.9354 307.399 84.7459 307.02 84.3669 306.641C83.9879 306.262 83.23 305.883 82.1878 305.598C82.093 305.598 81.714 305.409 81.6193 305.409C81.6193 305.409 81.6193 304.082 81.5245 303.514C81.5245 303.135 81.4298 302.472 81.2403 301.903C81.0508 301.051 80.5771 300.387 80.1033 299.914C81.5245 298.492 82.3772 296.882 82.3772 295.555C82.3772 292.997 79.1559 292.145 75.2713 293.755L74.4186 294.134L72.9027 292.618C68.4496 288.734 54.3325 304.272 58.8803 308.157L59.8277 309.009C59.5435 309.672 59.4488 310.43 59.5435 311.283C59.6382 312.325 60.2067 313.368 61.0594 314.126C61.9121 314.884 62.9544 315.357 63.9966 315.357C65.702 319.431 69.7761 321.895 74.4186 321.989C79.4401 322.179 83.7037 319.81 85.4091 315.547C85.5039 315.262 85.9776 313.936 85.9776 312.704C86.1671 311.567 85.5039 310.999 85.0301 310.999ZM64.4703 314.22C64.2808 314.22 64.186 314.22 63.9966 314.22C62.4806 314.22 60.8699 312.799 60.6805 311.188C60.491 309.388 61.4384 308.062 63.0491 307.683C63.2386 307.683 63.5228 307.588 63.7123 307.588C64.6598 307.683 65.9862 308.346 66.2705 310.336C66.5547 312.136 66.1757 313.936 64.4703 314.22ZM62.8596 306.641C61.8174 306.83 60.9647 307.399 60.3962 308.157C60.112 307.872 59.4488 307.399 59.354 307.114C58.5013 305.504 60.3015 302.282 61.5332 300.482C64.6598 296.029 69.5866 292.618 71.8605 293.281C72.2394 293.376 73.4711 294.797 73.4711 294.797C73.4711 294.797 71.1972 296.029 69.1128 297.829C66.2705 300.008 64.0913 303.23 62.8596 306.641ZM78.7769 313.557C78.7769 313.462 78.7769 313.368 78.7769 313.368C78.7769 313.368 76.4083 313.747 74.1344 312.894C74.4186 312.136 74.9871 312.42 76.0293 312.42C77.8294 312.515 79.3454 312.231 80.5771 311.946C81.6193 311.662 82.9457 311.094 83.9879 310.241C84.3669 310.999 84.4617 311.852 84.4617 311.852C84.4617 311.852 84.7459 311.757 84.9354 311.946C85.1249 312.041 85.3144 312.325 85.2196 313.083C85.0301 314.41 84.4617 315.452 83.5142 316.494C82.9457 317.157 82.2825 317.631 81.4298 318.01C81.0508 318.2 80.5771 318.389 80.1033 318.579C76.503 319.716 72.9027 318.484 71.7657 315.736C71.671 315.547 71.5762 315.357 71.5762 315.073C71.1025 313.273 71.4815 311.094 72.8079 309.767C72.9027 309.672 72.9974 309.578 72.9974 309.483C72.9974 309.388 72.9027 309.293 72.9027 309.199C72.4289 308.536 70.8183 307.399 71.1972 305.125C71.3867 303.514 72.8079 302.377 74.1344 302.472H74.4186C74.9871 302.472 75.4608 302.567 75.9345 302.567C76.6925 302.567 77.4505 302.472 78.2084 301.809C78.4927 301.619 78.6822 301.335 79.0611 301.335H79.4401C79.6296 301.335 79.8191 301.43 80.0086 301.524C80.6718 301.998 80.7666 303.04 80.7666 303.798C80.7666 304.272 80.8613 305.314 80.8613 305.598C80.8613 306.262 81.0508 306.451 81.4298 306.546C81.6193 306.641 81.8088 306.641 82.093 306.735C82.9457 307.02 83.5142 307.209 83.7984 307.588C83.9879 307.778 84.0827 307.967 84.0827 308.251C84.1774 309.009 83.5142 309.957 81.714 310.809C79.7244 311.757 77.261 311.946 75.6503 311.757C75.5555 311.757 75.0818 311.662 75.0818 311.662C73.7554 311.473 72.9974 313.178 73.7554 314.41C74.2291 315.168 75.6503 315.641 77.0715 315.641C80.2928 315.641 82.7562 314.22 83.7037 313.083C83.7037 313.083 83.7037 313.083 83.7984 312.989C83.7984 312.894 83.7984 312.894 83.7037 312.894C82.9457 313.368 79.6296 315.452 76.0293 314.884C76.0293 314.884 75.5555 314.789 75.1766 314.694C74.8923 314.599 74.2291 314.22 74.1344 313.557C76.882 314.41 78.7769 313.557 78.7769 313.557ZM68.6391 300.482C69.7761 299.156 71.1025 298.113 72.3342 297.45C72.3342 297.45 72.4289 297.45 72.4289 297.545C72.3342 297.735 72.1447 298.113 72.05 298.398C72.05 298.398 72.05 298.492 72.1447 298.492C72.9027 298.019 74.2291 297.45 75.3661 297.356C75.4608 297.356 75.4608 297.45 75.3661 297.45C75.1766 297.545 74.9871 297.735 74.8923 297.924V298.019C75.745 298.019 76.882 298.303 77.64 298.777C77.7347 298.777 77.64 298.871 77.64 298.871C76.503 298.587 74.6081 298.398 72.7132 298.871C70.913 299.25 69.5866 299.914 68.6391 300.482C68.6391 300.672 68.5444 300.577 68.6391 300.482Z" fill="#101828"/>
</g>
<defs>
<filter id="filter0_d_8025_38971" x="177" y="233" width="124" height="124" filterUnits="userSpaceOnUse" color-interpolation-filters="sRGB">
<feFlood flood-opacity="0" result="BackgroundImageFix"/>
<feColorMatrix in="SourceAlpha" type="matrix" values="0 0 0 0 0 0 0 0 0 0 0 0 0 0 0 0 0 0 127 0" result="hardAlpha"/>
<feOffset dy="1"/>
<feGaussianBlur stdDeviation="1"/>
<feComposite in2="hardAlpha" operator="out"/>
<feColorMatrix type="matrix" values="0 0 0 0 0.0627451 0 0 0 0 0.0941176 0 0 0 0 0.156863 0 0 0 0.04 0"/>
<feBlend mode="normal" in2="BackgroundImageFix" result="effect1_dropShadow_8025_38971"/>
<feBlend mode="normal" in="SourceGraphic" in2="effect1_dropShadow_8025_38971" result="shape"/>
</filter>
<filter id="filter1_d_8025_38971" x="125" y="2" width="124" height="124" filterUnits="userSpaceOnUse" color-interpolation-filters="sRGB">
<feFlood flood-opacity="0" result="BackgroundImageFix"/>
<feColorMatrix in="SourceAlpha" type="matrix" values="0 0 0 0 0 0 0 0 0 0 0 0 0 0 0 0 0 0 127 0" result="hardAlpha"/>
<feOffset dy="1"/>
<feGaussianBlur stdDeviation="1"/>
<feComposite in2="hardAlpha" operator="out"/>
<feColorMatrix type="matrix" values="0 0 0 0 0.0627451 0 0 0 0 0.0941176 0 0 0 0 0.156863 0 0 0 0.04 0"/>
<feBlend mode="normal" in2="BackgroundImageFix" result="effect1_dropShadow_8025_38971"/>
<feBlend mode="normal" in="SourceGraphic" in2="effect1_dropShadow_8025_38971" result="shape"/>
</filter>
<filter id="filter2_d_8025_38971" x="254" y="108" width="92" height="92" filterUnits="userSpaceOnUse" color-interpolation-filters="sRGB">
<feFlood flood-opacity="0" result="BackgroundImageFix"/>
<feColorMatrix in="SourceAlpha" type="matrix" values="0 0 0 0 0 0 0 0 0 0 0 0 0 0 0 0 0 0 127 0" result="hardAlpha"/>
<feOffset dy="1"/>
<feGaussianBlur stdDeviation="1"/>
<feComposite in2="hardAlpha" operator="out"/>
<feColorMatrix type="matrix" values="0 0 0 0 0.0627451 0 0 0 0 0.0941176 0 0 0 0 0.156863 0 0 0 0.04 0"/>
<feBlend mode="normal" in2="BackgroundImageFix" result="effect1_dropShadow_8025_38971"/>
<feBlend mode="normal" in="SourceGraphic" in2="effect1_dropShadow_8025_38971" result="shape"/>
</filter>
<filter id="filter3_d_8025_38971" x="60" y="145" width="92" height="92" filterUnits="userSpaceOnUse" color-interpolation-filters="sRGB">
<feFlood flood-opacity="0" result="BackgroundImageFix"/>
<feColorMatrix in="SourceAlpha" type="matrix" values="0 0 0 0 0 0 0 0 0 0 0 0 0 0 0 0 0 0 127 0" result="hardAlpha"/>
<feOffset dy="1"/>
<feGaussianBlur stdDeviation="1"/>
<feComposite in2="hardAlpha" operator="out"/>
<feColorMatrix type="matrix" values="0 0 0 0 0.0627451 0 0 0 0 0.0941176 0 0 0 0 0.156863 0 0 0 0.04 0"/>
<feBlend mode="normal" in2="BackgroundImageFix" result="effect1_dropShadow_8025_38971"/>
<feBlend mode="normal" in="SourceGraphic" in2="effect1_dropShadow_8025_38971" result="shape"/>
</filter>
<filter id="filter4_d_8025_38971" x="353" y="206" width="92" height="92" filterUnits="userSpaceOnUse" color-interpolation-filters="sRGB">
<feFlood flood-opacity="0" result="BackgroundImageFix"/>
<feColorMatrix in="SourceAlpha" type="matrix" values="0 0 0 0 0 0 0 0 0 0 0 0 0 0 0 0 0 0 127 0" result="hardAlpha"/>
<feOffset dy="1"/>
<feGaussianBlur stdDeviation="1"/>
<feComposite in2="hardAlpha" operator="out"/>
<feColorMatrix type="matrix" values="0 0 0 0 0.0627451 0 0 0 0 0.0941176 0 0 0 0 0.156863 0 0 0 0.04 0"/>
<feBlend mode="normal" in2="BackgroundImageFix" result="effect1_dropShadow_8025_38971"/>
<feBlend mode="normal" in="SourceGraphic" in2="effect1_dropShadow_8025_38971" result="shape"/>
</filter>
<filter id="filter5_d_8025_38971" x="337" y="23" width="68" height="68" filterUnits="userSpaceOnUse" color-interpolation-filters="sRGB">
<feFlood flood-opacity="0" result="BackgroundImageFix"/>
<feColorMatrix in="SourceAlpha" type="matrix" values="0 0 0 0 0 0 0 0 0 0 0 0 0 0 0 0 0 0 127 0" result="hardAlpha"/>
<feOffset dy="1"/>
<feGaussianBlur stdDeviation="1"/>
<feComposite in2="hardAlpha" operator="out"/>
<feColorMatrix type="matrix" values="0 0 0 0 0.0627451 0 0 0 0 0.0941176 0 0 0 0 0.156863 0 0 0 0.04 0"/>
<feBlend mode="normal" in2="BackgroundImageFix" result="effect1_dropShadow_8025_38971"/>
<feBlend mode="normal" in="SourceGraphic" in2="effect1_dropShadow_8025_38971" result="shape"/>
</filter>
<filter id="filter6_d_8025_38971" x="-2" y="73" width="68" height="68" filterUnits="userSpaceOnUse" color-interpolation-filters="sRGB">
<feFlood flood-opacity="0" result="BackgroundImageFix"/>
<feColorMatrix in="SourceAlpha" type="matrix" values="0 0 0 0 0 0 0 0 0 0 0 0 0 0 0 0 0 0 127 0" result="hardAlpha"/>
<feOffset dy="1"/>
<feGaussianBlur stdDeviation="1"/>
<feComposite in2="hardAlpha" operator="out"/>
<feColorMatrix type="matrix" values="0 0 0 0 0.0627451 0 0 0 0 0.0941176 0 0 0 0 0.156863 0 0 0 0.04 0"/>
<feBlend mode="normal" in2="BackgroundImageFix" result="effect1_dropShadow_8025_38971"/>
<feBlend mode="normal" in="SourceGraphic" in2="effect1_dropShadow_8025_38971" result="shape"/>
</filter>
<filter id="filter7_d_8025_38971" x="38" y="274" width="68" height="68" filterUnits="userSpaceOnUse" color-interpolation-filters="sRGB">
<feFlood flood-opacity="0" result="BackgroundImageFix"/>
<feColorMatrix in="SourceAlpha" type="matrix" values="0 0 0 0 0 0 0 0 0 0 0 0 0 0 0 0 0 0 127 0" result="hardAlpha"/>
<feOffset dy="1"/>
<feGaussianBlur stdDeviation="1"/>
<feComposite in2="hardAlpha" operator="out"/>
<feColorMatrix type="matrix" values="0 0 0 0 0.0627451 0 0 0 0 0.0941176 0 0 0 0 0.156863 0 0 0 0.04 0"/>
<feBlend mode="normal" in2="BackgroundImageFix" result="effect1_dropShadow_8025_38971"/>
<feBlend mode="normal" in="SourceGraphic" in2="effect1_dropShadow_8025_38971" result="shape"/>
</filter>
<linearGradient id="paint0_linear_8025_38971" x1="385.91" y1="45.7474" x2="373.622" y2="72.8016" gradientUnits="userSpaceOnUse">
<stop stop-color="#0052CC"/>
<stop offset="0.92" stop-color="#2684FF"/>
</linearGradient>
</defs>
</svg>
